:SAMPLES-PER-SECOND 30
:FULLY-SPECIFIED
:DEGREES
116
root  4.23165 42.9965 1.35206 -29.7828 -82.7349 27.6656
RightUpLeg  5.46541 1.22906 2.68192
RightLeg  24.3056 -9.41664 -4.81613
RightFoot  12.9749 -0.326026 1.92486
RightToes  7.56698e-010 0 -3.6325e-017
Spine  17.0046 0.211941 5.75008
Spine1  3.52583 3.51556 -11.9481
HEad  -9.93719 -10.1186 5.64669
LeftShoulder1  3.0066 -8.26273 -19.0414
LeftArm  -20.6919 -9.49233 -52.2108
LeftForeArm  5.82407 3.64991 -9.21568
LeftHand  -0.257753 3.84398 19.2614
RightShoulder  1.70645 4.50326 14.4809
RightArm  -16.9189 15.198 60.8523
RightForeArm  15.2375 6.4516 8.60235
RightHand  -1.82317 7.6808 -16.4206
LeftUpLeg  -21.4554 -2.27189 -5.87693
LeftLeg  34.0093 3.71602 3.0224
LeftFoot  24.2114 3.65442 -11.8577
LeftToes  -3.13779e-010 -2.47553e-011 -5.36621e-011
117
root  3.82473 42.1348 1.00154 -19.0285 -79.9706 17.4811
RightUpLeg  9.8717 0.211438 6.31489
RightLeg  23.7886 -11.6559 -5.77476
RightFoot  17.4455 -0.110941 0.876076
RightToes  7.56698e-010 0 -3.6325e-017
Spine  14.1922 1.11464 5.38888
Spine1  4.87486 4.4747 -12.1897
HEad  -10.2029 -14.9019 8.86613
LeftShoulder1  2.97008 -7.67338 -20.1464
LeftArm  -15.1898 -2.02323 -49.2551
LeftForeArm  3.57263 -7.26686 -9.54918
LeftHand  -0.462331 2.12909 16.3639
RightShoulder  1.8822 4.62539 16.5171
RightArm  -5.46533 5.99557 60.2218
RightForeArm  4.26772 27.3311 5.46384
RightHand  -1.81924 7.82741 -16.2066
LeftUpLeg  -23.9163 -4.38893 -6.25876
LeftLeg  33.4308 5.39405 4.18754
LeftFoot  28.2831 4.31018 -12.4394
LeftToes  -3.13779e-010 -2.47553e-011 -5.36621e-011
118
root  3.47059 41.042 0.772479 -12.7419 -79.2872 12.5086
RightUpLeg  12.4213 -1.17396 8.81943
RightLeg  21.1881 -12.6193 -5.58862
RightFoot  17.2595 -0.217727 1.32946
RightToes  7.56698e-010 0 -3.6325e-017
Spine  11.6949 2.80373 5.99039
Spine1  5.35567 6.5895 -13.6149
HEad  -10.684 -19.6534 11.9152
LeftShoulder1  3.0079 -7.05782 -22.1671
LeftArm  -0.834962 5.73818 -45.9353
LeftForeArm  -7.73453 -24.8652 -6.35713
LeftHand  -0.660486 0.224436 14.869
RightShoulder  2.00859 4.32834 19.23
RightArm  -14.0047 -3.87268 56.5565
RightForeArm  14.2921 49.9873 12.5596
RightHand  -1.51354 7.0687 -14.3436
LeftUpLeg  -25.6394 -5.55402 -5.6164
LeftLeg  35.5368 6.32356 5.17603
LeftFoot  25.5697 4.03756 -12.5889
LeftToes  -3.13779e-010 -2.47553e-011 -5.36621e-011
119
root  3.29722 39.7182 0.721596 -11.4556 -80.6417 12.0833
RightUpLeg  13.4421 -1.78068 9.04218
RightLeg  21.4352 -9.98197 -4.48403
RightFoot  9.66725 -0.389763 2.56636
RightToes  7.56698e-010 0 -3.6325e-017
Spine  10.8156 4.29396 7.70245
Spine1  5.07423 9.12262 -17.2285
HEad  -11.8987 -22.7011 14.457
LeftShoulder1  2.92604 -6.50446 -22.9643
LeftArm  -8.48938 15.2896 -42.3634
LeftForeArm  3.43358 -45.0517 -11.1964
LeftHand  -0.709313 -0.80567 13.396
RightShoulder  1.97541 3.86057 20.4833
RightArm  -15.5843 -11.0193 53.7999
RightForeArm  31.8268 70.7441 31.97
RightHand  -1.1479 5.34836 -12.6787
LeftUpLeg  -25.761 -6.70279 -5.16476
LeftLeg  38.9967 5.19009 4.86229
LeftFoot  13.3815 2.61878 -12.0982
LeftToes  -3.13779e-010 -2.47553e-011 -5.36621e-011
120
root  3.24078 38.1959 0.776986 -15.0431 -81.797 15.0034
RightUpLeg  14.5915 -0.80199 8.60774
RightLeg  25.458 -6.47466 -3.59074
RightFoot  -3.48961 -0.306069 3.8781
RightToes  7.56698e-010 0 -3.6325e-017
Spine  11.395 4.76253 8.9553
Spine1  5.65164 10.6422 -20.0066
HEad  -14.6194 -23.539 15.4265
LeftShoulder1  2.7383 -5.85713 -22.9918
LeftArm  -13.7349 25.1149 -40.5466
LeftForeArm  20.5339 -67.7475 -28.6467
LeftHand  -0.555294 -0.9376 10.2602
RightShoulder  1.84293 3.60186 19.5383
RightArm  -16.6041 -14.3513 51.8101
RightForeArm  103.222 79.5026 104.136
RightHand  -0.873459 3.38828 -11.7549
LeftUpLeg  -24.742 -7.88992 -6.12032
LeftLeg  43.2496 4.96415 5.41176
LeftFoot  -2.24049 0.706917 -8.46382
LeftToes  -3.13779e-010 -2.47553e-011 -5.36621e-011
